<?xml version="1.0" encoding="utf-8"?>
<!-- Generator: Adobe Illustrator 26.2.1, SVG Export Plug-In . SVG Version: 6.00 Build 0)  -->
<svg version="1.1" id="Layer_1" xmlns="http://www.w3.org/2000/svg" xmlns:xlink="http://www.w3.org/1999/xlink" x="0px" y="0px"
	 viewBox="0 0 303 46.2" style="enable-background:new 0 0 303 46.2;" xml:space="preserve">
<style type="text/css">
	.st0{fill:#231F20;}
</style>
<g id="SvgjsG1175" transform="matrix(2.5779019558028375,0,0,2.5779019558028375,-2.629459331129595,14.893497882526656)">
	<path class="st0" d="M4.2-5.8V8.4H1V-5.8C1-5.8,4.2-5.8,4.2-5.8z M13.7-2h3.2V8.4h-3.2v-1c-0.1,0.4-1.1,1.2-2.7,1.2
		c-2.4,0-5.1-1.7-5.1-5.4c0-3.6,2.7-5.4,5.1-5.4c1.6,0,2.5,0.9,2.7,1.1C13.7-1.1,13.7-2,13.7-2z M11.5,5.8c1.3,0,2.4-0.9,2.4-2.6
		c0-1.7-1.1-2.6-2.4-2.6C10.1,0.6,9,1.5,9,3.1C9,4.9,10.1,5.8,11.5,5.8z M28.4-2l-5,7.6h4.7v2.8h-9.7l5-7.6h-4.5V-2H28.4z M38.4-2.1
		h3.1l-6.4,14.2H32L33.9,8L29.4-2.1h3.1l2.9,6.7L38.4-2.1z M48.9-2.2c2.4,0,5.1,1.8,5.1,5.4c0,3.7-2.7,5.4-5.1,5.4
		c-1.6,0-2.5-0.9-2.7-1.2v1H43V-2v-3.7h3.2v4.7C46.3-1.3,47.3-2.2,48.9-2.2z M48.4,5.8c1.4,0,2.5-0.9,2.5-2.6c0-1.7-1.2-2.6-2.5-2.6
		c-1.3,0-2.4,0.9-2.4,2.6C46.1,4.9,47.1,5.8,48.4,5.8z M63.2-2h3.2V8.4h-3.2v-1c-0.1,0.4-1.1,1.2-2.7,1.2c-2.4,0-5.1-1.7-5.1-5.4
		c0-3.6,2.7-5.4,5.1-5.4c1.6,0,2.5,0.9,2.7,1.1C63.2-1.1,63.2-2,63.2-2z M61,5.8c1.3,0,2.4-0.9,2.4-2.6c0-1.7-1.1-2.6-2.4-2.6
		c-1.4,0-2.5,0.9-2.5,2.6C58.5,4.9,59.6,5.8,61,5.8z M73.3,1.2c-0.3-0.7-0.7-1-1.2-1c-0.4,0-0.8,0.2-0.8,0.6c0,0.4,0.2,0.6,0.7,0.8
		l1.3,0.5c1.5,0.5,3,1.1,3,3.2c0,2.1-2.1,3.3-4.3,3.3c-1.9,0-3.8-1.1-4.2-3l2.5-0.8c0.3,0.6,0.7,1.2,1.7,1.2c0.7,0,1.1-0.4,1.1-0.8
		c0-0.2-0.2-0.5-0.7-0.7l-1.2-0.4c-2.1-0.8-3.1-1.8-3.1-3.3c0-1.9,1.8-3.1,3.8-3.1c2,0,3.4,1.1,4,2.8L73.3,1.2z M83,5.7
		c0.6,0,1-0.1,1.4-0.2v2.6c-0.4,0.2-1.2,0.3-2.2,0.3c-1.7,0-3.2-0.6-3.2-3.8V0.6h-1.5V-2H79v-2.4h3.2V-2h2.2v2.6h-2.2v4.1
		C82.2,5.2,82.3,5.7,83,5.7L83,5.7z M93.6-2h3.2V8.4h-3.2v-1c-0.1,0.4-1.1,1.2-2.7,1.2c-2.4,0-5.1-1.7-5.1-5.4
		c0-3.6,2.7-5.4,5.1-5.4c1.6,0,2.5,0.9,2.7,1.1C93.6-1.1,93.6-2,93.6-2z M91.4,5.8c1.3,0,2.4-0.9,2.4-2.6c0-1.7-1.1-2.6-2.4-2.6
		c-1.4,0-2.5,0.9-2.5,2.6C88.8,4.9,90,5.8,91.4,5.8z M105.5-2.2c0.3,0,0.6,0,0.8,0.1v3c-0.2-0.1-0.5-0.1-0.7-0.1
		c-1.9,0-3.5,1.4-3.6,3.3v4.2h-3.2V-2h3.2v2.5C102.4-1.1,103.6-2.2,105.5-2.2L105.5-2.2z M115.4-5.8h3.2v5.1v9.1h-3.2v-1
		c-0.1,0.4-1.1,1.2-2.7,1.2c-2.4,0-5.1-1.7-5.1-5.4c0-3.6,2.7-5.4,5.1-5.4c1.6,0,2.5,0.9,2.7,1.1C115.4-1.1,115.4-5.8,115.4-5.8z
		 M113.2,5.8c1.3,0,2.4-0.9,2.4-2.6c0-1.7-1.1-2.6-2.4-2.6c-1.4,0-2.5,0.9-2.5,2.6C110.6,4.9,111.8,5.8,113.2,5.8z"/>
</g>
</svg>
